<svg width="242" height="92" viewBox="0 0 242 92" fill="none" xmlns="http://www.w3.org/2000/svg">
<path d="M-6.24657e-05 76.1601H37.8879C41.8133 76.2454 45.2693 75.6054 48.2559 74.2401C51.3279 72.7894 52.8639 69.7174 52.8639 65.0241C52.8639 60.5014 51.3279 57.5147 48.2559 56.0641C45.1839 54.5281 41.7279 53.7601 37.8879 53.7601L7.29594 53.632V37.8881H37.3759C41.2159 37.9734 44.6719 37.3334 47.7439 35.9681C50.8159 34.6027 52.3519 31.6161 52.3519 27.008C52.4373 22.3147 50.9013 19.2854 47.7439 17.9201C44.6719 16.5547 41.2159 15.872 37.3759 15.872L-6.24657e-05 15.744V4.57764e-05H44.1599C50.7306 0.170715 56.7039 1.19472 62.0799 3.07205C67.5413 4.94938 71.2959 9.42938 73.3439 16.512C75.3066 23.0827 75.1786 28.672 72.9599 33.28C70.7413 37.8027 67.1146 42.0267 62.0799 45.952C64.8106 47.5734 67.1999 49.4081 69.2479 51.4561C71.2959 53.504 72.7466 56.1494 73.5999 59.3921C74.0266 60.7574 74.3253 62.1654 74.4959 63.6161C74.6666 64.9814 74.7093 66.3894 74.6239 67.8401C74.6239 69.0347 74.5386 70.2294 74.3679 71.4241C74.1973 72.6187 73.9839 73.7707 73.7279 74.8801C72.1066 81.2801 68.6079 85.7174 63.2319 88.1921C57.8559 90.6667 52.1386 91.9041 46.0799 91.9041H-6.24657e-05V76.1601ZM104.427 58.2401L79.3389 24.4481H100.075L114.539 44.8L129.387 24.4481H149.867L124.907 58.6241L149.483 91.9041H128.747L114.539 72.3201L100.203 91.9041H79.5949L104.427 58.2401ZM237.129 16.384H189.385C185.204 16.4694 181.662 17.3654 178.761 19.0721C175.945 20.6934 174.537 23.8507 174.537 28.544C174.537 32.1281 175.732 34.6881 178.121 36.224C180.596 37.76 183.454 38.528 186.697 38.528L212.297 38.4001C213.236 38.4854 214.217 38.528 215.241 38.528C216.265 38.528 217.289 38.5707 218.313 38.6561C221.3 38.8267 224.244 39.3387 227.145 40.1921C230.046 40.9601 232.606 42.4107 234.825 44.5441C236.873 46.4214 238.409 48.6827 239.433 51.3281C240.457 53.9734 241.097 56.7041 241.353 59.5201C241.438 60.3734 241.481 61.2267 241.481 62.0801C241.566 62.8481 241.609 63.6587 241.609 64.5121C241.438 75.1787 238.494 82.4321 232.777 86.2721C227.06 90.0267 219.294 91.9041 209.481 91.9041H158.025V75.5201H206.409C210.676 75.6054 214.345 74.9227 217.417 73.4721C220.574 72.0214 221.854 68.7361 221.257 63.6161C220.83 59.6054 219.337 57.1307 216.777 56.1921C214.217 55.2534 211.188 54.7414 207.689 54.6561L184.905 54.528C175.433 54.6134 167.924 52.7361 162.377 48.896C156.916 44.9707 154.228 37.9307 154.313 27.776C154.484 17.1094 157.428 9.85605 163.145 6.01605C168.948 2.09072 176.756 0.128052 186.569 0.128052L237.129 4.57764e-05V16.384Z" fill="url(#paint0_radial_270_673)"/>
<defs>
<radialGradient id="paint0_radial_270_673" cx="0" cy="0" r="1" gradientTransform="matrix(63.6333 97.2794 -164.779 65.8067 122.836 55.4041)" gradientUnits="userSpaceOnUse">
<stop stop-color="#FFC434"/>
<stop offset="0.5" stop-color="#FFBB77"/>
<stop offset="1" stop-color="#FFD5FF"/>
</radialGradient>
</defs>
</svg>
