<svg width="96" height="96" xmlns="http://www.w3.org/2000/svg" xmlns:xlink="http://www.w3.org/1999/xlink" xml:space="preserve" overflow="hidden"><g transform="translate(-282 -419)"><path d="M342 457 342 454 330 442 318 454 318 457 289 457 289 461 291 461 291 499 369 499 369 461 371 461 371 457ZM301 491 295 491 295 485 301 485ZM301 481 295 481 295 475 301 475ZM301 471 295 471 295 465 301 465ZM311 491 305 491 305 485 311 485ZM311 481 305 481 305 475 311 475ZM311 471 305 471 305 465 311 465ZM321 491 315 491 315 485 321 485ZM321 481 315 481 315 475 321 475ZM321 471 315 471 315 465 321 465ZM326 495 326 481 334 481 334 495ZM337 460.88 335.13 464.12 331.87 462.23 331.87 466 328.13 466 328.13 462.23 324.87 464.12 323 460.88 326.27 459 323 457.12 324.87 453.88 328.13 455.77 328.13 452 331.87 452 331.87 455.77 335.13 453.88 337 457.12 333.73 459ZM345 491 339 491 339 485 345 485ZM345 481 339 481 339 475 345 475ZM345 471 339 471 339 465 345 465ZM355 491 349 491 349 485 355 485ZM355 481 349 481 349 475 355 475ZM355 471 349 471 349 465 355 465ZM365 491 359 491 359 485 365 485ZM365 481 359 481 359 475 365 475ZM365 471 359 471 359 465 365 465Z" fill="#FFB500"/><path d="M330 436.83 344.59 451.41 347.41 448.59 330 431.17 312.59 448.59 315.41 451.41 330 436.83Z" fill="#FFB500"/></g></svg>